<svg width="336" height="24" viewBox="0 0 336 24" fill="none" xmlns="http://www.w3.org/2000/svg">
<g clip-path="url(#clip0_10_111)">
<path d="M16.5 0H7.5C5.51088 0 3.60322 0.790176 2.1967 2.1967C0.790176 3.60322 0 5.51088 0 7.5L0 16.5C0 18.4891 0.790176 20.3968 2.1967 21.8033C3.60322 23.2098 5.51088 24 7.5 24H16.5C18.4891 24 20.3968 23.2098 21.8033 21.8033C23.2098 20.3968 24 18.4891 24 16.5V7.5C24 5.51088 23.2098 3.60322 21.8033 2.1967C20.3968 0.790176 18.4891 0 16.5 0V0ZM21.75 16.5C21.75 19.395 19.395 21.75 16.5 21.75H7.5C4.605 21.75 2.25 19.395 2.25 16.5V7.5C2.25 4.605 4.605 2.25 7.5 2.25H16.5C19.395 2.25 21.75 4.605 21.75 7.5V16.5Z" fill="#FAFBFF"/>
<path d="M12 6C10.4087 6 8.88258 6.63214 7.75736 7.75736C6.63214 8.88258 6 10.4087 6 12C6 13.5913 6.63214 15.1174 7.75736 16.2426C8.88258 17.3679 10.4087 18 12 18C13.5913 18 15.1174 17.3679 16.2426 16.2426C17.3679 15.1174 18 13.5913 18 12C18 10.4087 17.3679 8.88258 16.2426 7.75736C15.1174 6.63214 13.5913 6 12 6ZM12 15.75C11.0058 15.7488 10.0527 15.3533 9.34966 14.6503C8.64666 13.9473 8.25119 12.9942 8.25 12C8.25 9.9315 9.933 8.25 12 8.25C14.067 8.25 15.75 9.9315 15.75 12C15.75 14.067 14.067 15.75 12 15.75Z" fill="#FAFBFF"/>
<path d="M18.45 6.34949C18.8916 6.34949 19.2495 5.99154 19.2495 5.54999C19.2495 5.10844 18.8916 4.75049 18.45 4.75049C18.0085 4.75049 17.6505 5.10844 17.6505 5.54999C17.6505 5.99154 18.0085 6.34949 18.45 6.34949Z" fill="#FAFBFF"/>
</g>
<g clip-path="url(#clip1_10_111)">
<path d="M104 7.5H109.367V24H104V7.5ZM123.986 7.6935C123.929 7.6755 123.875 7.656 123.815 7.6395C123.743 7.6232 123.67 7.60919 123.597 7.5975C123.281 7.53271 122.958 7.50004 122.635 7.5C119.506 7.5 117.521 9.7755 116.867 10.6545V7.5H111.5V24H116.867V15C116.867 15 120.923 9.351 122.635 13.5V24H128V12.8655C127.998 11.6807 127.602 10.5301 126.876 9.59416C126.15 8.65818 125.133 7.9897 123.986 7.6935Z" fill="#FAFBFF"/>
<path d="M106.625 5.25C108.075 5.25 109.25 4.07475 109.25 2.625C109.25 1.17525 108.075 0 106.625 0C105.175 0 104 1.17525 104 2.625C104 4.07475 105.175 5.25 106.625 5.25Z" fill="#FAFBFF"/>
</g>
<path d="M218.07 20.5029C218.07 20.3563 218.038 20.2114 217.976 20.0786C217.914 19.9458 217.823 19.8284 217.71 19.7345C217.597 19.6407 217.465 19.5728 217.324 19.5356C217.182 19.4985 217.033 19.493 216.889 19.5195C215.58 19.7598 213.927 19.7959 213.488 18.5615C213.105 17.6055 212.47 16.7711 211.651 16.1465C211.592 16.1148 211.537 16.0782 211.484 16.0372C211.413 15.8481 211.285 15.6852 211.119 15.5699C210.953 15.4547 210.756 15.3925 210.554 15.3916H210.549C210.284 15.3916 210.031 15.4962 209.843 15.6827C209.656 15.8692 209.55 16.1224 209.549 16.3868C209.545 17.2022 210.36 17.7247 210.69 17.9014C211.08 18.2931 211.394 18.7541 211.614 19.2608C211.979 20.2842 213.037 21.837 216.08 21.6368C216.081 21.6719 216.082 21.7051 216.083 21.7354L216.087 22.003C216.087 22.2682 216.192 22.5226 216.38 22.7101C216.567 22.8976 216.822 23.003 217.087 23.003C217.352 23.003 217.606 22.8976 217.794 22.7101C217.982 22.5226 218.087 22.2682 218.087 22.003L218.082 21.6846C218.077 21.4951 218.07 21.2207 218.07 20.5029ZM228.737 5.37694C228.769 5.25194 228.8 5.11327 228.828 4.95702C228.989 3.84261 228.848 2.70521 228.419 1.66402C228.365 1.52828 228.282 1.40603 228.176 1.30582C228.069 1.20562 227.942 1.12989 227.804 1.08395C227.448 0.963828 226.133 0.727498 223.62 2.33395C221.53 1.84224 219.355 1.84224 217.266 2.33395C214.762 0.751028 213.455 0.965828 213.102 1.07911C212.96 1.12319 212.829 1.19851 212.72 1.29957C212.611 1.40062 212.526 1.52483 212.471 1.66311C212.033 2.72429 211.894 3.88488 212.067 5.01955C212.092 5.14748 212.118 5.26565 212.146 5.37404C211.317 6.47748 210.876 7.8234 210.89 9.20314C210.887 9.51097 210.902 9.81873 210.933 10.125C211.267 14.7275 214.267 16.1094 216.357 16.584C216.313 16.709 216.274 16.8428 216.239 16.9844C216.176 17.2417 216.218 17.5133 216.355 17.7398C216.493 17.9662 216.714 18.1289 216.971 18.1923C217.228 18.2556 217.5 18.2144 217.727 18.0777C217.954 17.941 218.117 17.7199 218.181 17.4629C218.245 17.1297 218.408 16.8236 218.649 16.585C218.795 16.4574 218.9 16.2902 218.953 16.1037C219.005 15.9172 219.002 15.7195 218.944 15.5346C218.887 15.3497 218.776 15.1856 218.627 15.0623C218.478 14.9389 218.296 14.8617 218.103 14.8399C214.649 14.4453 213.149 13.0381 212.924 9.94143C212.899 9.69616 212.888 9.44968 212.89 9.20315C212.874 8.2198 213.199 7.26123 213.81 6.49026C213.871 6.40988 213.936 6.33263 214.005 6.25881C214.128 6.12181 214.21 5.95373 214.243 5.77301C214.276 5.5923 214.259 5.40594 214.193 5.2344C214.126 5.05393 214.074 4.86803 214.038 4.67873C213.957 4.14044 213.983 3.59132 214.117 3.06349C214.986 3.30896 215.804 3.70853 216.532 4.24317C216.652 4.32334 216.788 4.3767 216.931 4.39961C217.074 4.42253 217.22 4.41447 217.359 4.37599C219.38 3.82749 221.511 3.82783 223.532 4.37699C223.672 4.41543 223.819 4.42303 223.963 4.39926C224.106 4.37549 224.242 4.32091 224.363 4.2393C225.087 3.70244 225.902 3.2993 226.768 3.04887C226.901 3.56402 226.931 4.10032 226.855 4.62699C226.819 4.83453 226.763 5.03799 226.686 5.23442C226.621 5.40596 226.603 5.59232 226.637 5.77303C226.67 5.95375 226.752 6.12183 226.874 6.25883C226.952 6.34574 227.029 6.43949 227.098 6.52738C227.704 7.2853 228.024 8.23285 228 9.20314C228.002 9.46275 227.989 9.72226 227.962 9.98048C227.742 13.0361 226.237 14.4443 222.767 14.8398C222.574 14.8618 222.392 14.9392 222.243 15.0626C222.093 15.1861 221.983 15.3503 221.925 15.5353C221.867 15.7202 221.865 15.918 221.917 16.1046C221.97 16.2911 222.075 16.4583 222.221 16.5859C222.47 16.831 222.633 17.1493 222.688 17.4941C222.755 17.7618 222.786 18.0375 222.78 18.3135V20.6475C222.77 21.2949 222.77 21.7803 222.77 22.0029C222.77 22.2682 222.875 22.5225 223.063 22.71C223.25 22.8976 223.505 23.0029 223.77 23.0029C224.035 23.0029 224.29 22.8976 224.477 22.71C224.665 22.5225 224.77 22.2682 224.77 22.0029C224.77 21.7861 224.77 21.3106 224.78 20.6631V18.3135C224.788 17.8713 224.736 17.4301 224.625 17.002C224.593 16.8614 224.555 16.7226 224.509 16.586C226.03 16.3332 227.412 15.5489 228.409 14.3726C229.407 13.1962 229.954 11.7042 229.954 10.1621C229.987 9.84355 230.002 9.5234 230 9.20314C230.022 7.82191 229.577 6.47366 228.737 5.37696L228.737 5.37694Z" fill="#FAFBFF"/>
<path d="M336 5.30855C335.097 5.7023 334.142 5.96398 333.165 6.08555C334.195 5.47449 334.965 4.50689 335.33 3.36605C334.365 3.93805 333.31 4.34086 332.209 4.55705C331.535 3.83671 330.659 3.33592 329.696 3.11974C328.733 2.90355 327.728 2.98196 326.81 3.34478C325.892 3.7076 325.104 4.33806 324.55 5.15425C323.995 5.97044 323.698 6.93463 323.698 7.92155C323.698 8.31155 323.731 8.68654 323.812 9.04354C321.855 8.94758 319.94 8.43957 318.192 7.55272C316.445 6.66588 314.904 5.42017 313.671 3.89705C313.039 4.97983 312.844 6.26271 313.125 7.48445C313.406 8.70619 314.142 9.77493 315.183 10.473C314.404 10.4522 313.642 10.2443 312.96 9.86705V9.92105C312.961 11.0572 313.354 12.1582 314.072 13.0387C314.79 13.9193 315.789 14.5256 316.902 14.7555C316.481 14.8665 316.047 14.921 315.612 14.9175C315.299 14.9231 314.987 14.8949 314.681 14.8335C314.998 15.8101 315.611 16.6641 316.435 17.2779C317.258 17.8917 318.251 18.2352 319.278 18.261C317.536 19.6231 315.388 20.362 313.178 20.3595C312.774 20.3595 312.387 20.3415 312 20.292C314.25 21.7419 316.872 22.5088 319.548 22.5C328.602 22.5 333.552 15 333.552 8.49904C333.552 8.28154 333.545 8.07155 333.534 7.86305C334.504 7.16852 335.34 6.30287 336 5.30855Z" fill="#FAFBFF"/>
<defs>
<clipPath id="clip0_10_111">
<rect width="24" height="24" fill="white"/>
</clipPath>
<clipPath id="clip1_10_111">
<rect width="24" height="24" fill="white" transform="translate(104)"/>
</clipPath>
</defs>
</svg>
